<svg width="122" height="32" viewBox="0 0 122 32" fill="none" xmlns="http://www.w3.org/2000/svg">
<path d="M115.156 6.12092L115.945 6.223C116.045 6.23523 116.138 6.2811 116.208 6.35302C117.597 7.76505 118.667 9.45477 119.348 11.3098C119.374 11.3817 119.381 11.4591 119.369 11.5346C119.356 11.61 119.324 11.6811 119.276 11.7408C119.228 11.8005 119.165 11.8469 119.094 11.8755C119.023 11.9042 118.945 11.9141 118.869 11.9043L113.907 11.2622C112.948 11.1386 111.973 11.2099 111.042 11.4717C110.111 11.7336 109.243 12.1805 108.491 12.7856L105.591 15.1082C104.84 15.7141 103.972 16.1616 103.042 16.4236C102.111 16.6856 101.136 16.7564 100.177 16.6319L92.5141 15.6402C92.4042 15.6265 92.3033 15.5727 92.2311 15.489C92.159 15.4054 92.1207 15.2981 92.1239 15.188C92.2223 13.6654 92.5718 12.1693 93.1584 10.7595C93.1971 10.67 93.2642 10.5956 93.3494 10.5476C93.4347 10.4997 93.5334 10.4808 93.6304 10.4938L101.424 11.5023C102.384 11.6267 103.359 11.5557 104.29 11.2939C105.221 11.032 106.089 10.5846 106.84 9.97901L109.738 7.65604C110.489 7.04814 111.356 6.59855 112.288 6.33464C113.219 6.07072 114.195 5.99801 115.156 6.12092ZM106.707 17.0901L103.804 19.4275C103.052 20.0321 102.184 20.4786 101.253 20.7399C100.322 21.0013 99.3476 21.072 98.3883 20.9478L93.4269 20.3058C93.3502 20.2957 93.2722 20.3055 93.2004 20.3342C93.1286 20.363 93.0656 20.4097 93.0173 20.4698C92.9691 20.5299 92.9373 20.6015 92.9251 20.6774C92.9129 20.7534 92.9207 20.8312 92.9477 20.9033C93.6284 22.7583 94.6986 24.448 96.0872 25.86C96.1576 25.9319 96.2505 25.9778 96.3507 25.99L97.1395 26.0921C98.0987 26.2167 99.0734 26.1458 100.004 25.8839C100.935 25.6219 101.802 25.1743 102.553 24.5684L105.453 22.2458C106.205 21.6402 107.073 21.1928 108.004 20.931C108.935 20.6691 109.91 20.5982 110.87 20.7225L118.663 21.731C118.76 21.7444 118.858 21.7255 118.943 21.6774C119.028 21.6293 119.095 21.5546 119.132 21.465C119.724 20.0505 120.075 18.5481 120.172 17.0191C120.178 16.9073 120.142 16.7972 120.07 16.7111C119.997 16.625 119.895 16.5693 119.783 16.5551L112.12 15.5635C111.161 15.4398 110.186 15.5114 109.256 15.7738C108.325 16.0363 107.458 16.4841 106.707 17.0901ZM103.212 7.19521C104.17 7.31924 105.145 7.24841 106.075 6.98699C107.006 6.72558 107.873 6.27904 108.625 5.67444L111.051 3.72518C111.112 3.67518 111.159 3.60999 111.186 3.53623C111.214 3.46248 111.221 3.38278 111.208 3.30523C111.194 3.22768 111.161 3.15504 111.11 3.09469C111.059 3.03435 110.993 2.98844 110.919 2.96163C108.547 2.11172 105.988 1.91161 103.512 2.38227C101.036 2.85293 98.7328 3.97703 96.8441 5.63677C96.7805 5.69357 96.7348 5.76734 96.7123 5.84927C96.6897 5.93121 96.6914 6.01787 96.717 6.09891C96.7427 6.17995 96.7912 6.25196 96.8569 6.30635C96.9225 6.36074 97.0025 6.39521 97.0873 6.40567L103.212 7.19521ZM109.084 25.0178C108.125 24.8934 107.15 24.9641 106.22 25.2255C105.289 25.487 104.422 25.9337 103.671 26.5386L101.244 28.4879C101.183 28.5377 101.136 28.6026 101.109 28.6762C101.081 28.7497 101.073 28.8292 101.086 28.9067C101.1 28.9841 101.133 29.0568 101.183 29.1172C101.234 29.1777 101.3 29.2238 101.374 29.251C103.746 30.0996 106.305 30.2991 108.781 29.8286C111.257 29.358 113.561 28.2348 115.451 26.5763C115.515 26.5195 115.56 26.4457 115.583 26.3638C115.605 26.2818 115.604 26.1952 115.578 26.1141C115.553 26.0331 115.504 25.9611 115.438 25.9067C115.373 25.8523 115.293 25.8178 115.208 25.8074L109.084 25.0178Z" fill="url(#paint0_linear_980_15)"/>
<path d="M21.8001 29.838C22.6886 29.838 23.5029 29.3452 23.9113 28.5602L33.5423 10.0507C31.3821 10.0507 29.5427 10.0507 27.4955 10.0507C26.6796 10.0507 25.9422 10.5348 25.6215 11.2811L20.9402 22.1771L19.9861 12.4899C19.8498 11.1059 18.68 10.0507 17.2821 10.0507H16.5263C15.0332 10.0507 13.6597 10.8629 12.9462 12.1677L7.47326 22.1771L7.63736 11.4226C7.64887 10.6683 7.03738 10.0507 6.27905 10.0507H0.636841L2.11944 29.838H7.51477C8.40048 29.838 9.21276 29.3482 9.62246 28.5671L15.3804 17.5887L16.41 29.838H21.8001Z" fill="black"/>
<path d="M35.7595 29.838C36.5558 29.838 37.2451 29.2876 37.4174 28.5142L41.5292 10.0507H36.55C35.7537 10.0507 35.0644 10.6012 34.8921 11.3746L30.7803 29.838H35.7595Z" fill="black"/>
<path d="M58.0482 29.838C58.8447 29.838 59.5342 29.2873 59.7062 28.5137L62.4181 16.3188C62.5005 15.9091 62.624 15.0078 62.624 14.6801C62.624 11.6894 60.2354 9.55911 56.2406 9.55911C53.7883 9.55911 52.0121 10.5958 50.6091 11.7424C50.3503 11.9538 49.9534 11.7191 50.0307 11.395L50.2522 10.4666C50.3028 10.2543 50.141 10.0507 49.9218 10.0507H45.3723C44.5759 10.0507 43.8866 10.6012 43.7144 11.3746L39.6026 29.838H44.5812C45.3778 29.838 46.0672 29.2873 46.2392 28.5136L48.7864 17.0562C49.7748 16.1139 51.1751 15.1307 52.74 15.1307C54.4285 15.1307 55.7464 15.7452 55.7464 17.302C55.7464 17.6297 55.7052 17.9984 55.6229 18.3671L53.0695 29.838H58.0482Z" fill="black"/>
<path d="M73.7789 9.55911C66.8601 9.55911 63.3184 16.4007 63.3184 22.1361C63.3184 27.38 66.3248 30.3296 70.7725 30.3296C72.5977 30.3296 74.1177 29.7502 75.5603 28.478C75.8233 28.2461 76.2765 28.4889 76.197 28.8295L76.0583 29.4238C76.0089 29.6356 76.1705 29.838 76.3891 29.838H80.9001C81.6962 29.838 82.3854 29.2879 82.5578 28.5148L88.3578 2.5127H83.4165C82.6217 2.5127 81.9332 3.06107 81.7595 3.83255L79.8329 12.3859C78.5562 10.5423 76.2499 9.55911 73.7789 9.55911ZM74.8909 15.1307C76.1891 15.1307 77.3413 15.5666 78.179 16.2523C78.647 16.6354 78.7672 17.2735 78.6335 17.8616L77.4854 22.9145C76.5382 24.0206 75.2203 24.7581 73.7377 24.7581C71.555 24.7581 69.8665 23.2013 69.8665 20.7842C69.8665 17.7116 71.9669 15.1307 74.8909 15.1307Z" fill="black"/>
<path d="M43.2588 4.1104C43.2588 6.77329 40.9525 8.28909 39.1405 8.28909C37.2049 8.28909 35.8458 6.85523 35.8458 5.17556C35.8458 3.94946 36.326 2.97523 37.0251 2.28088C37.8444 1.4672 38.9642 1.03784 39.9642 1.03784C41.8586 1.03784 43.2588 2.43074 43.2588 4.1104Z" fill="black"/>
<defs>
<linearGradient id="paint0_linear_980_15" x1="92.2095" y1="14.3028" x2="120.081" y2="17.9477" gradientUnits="userSpaceOnUse">
<stop offset="0.3" stop-color="#6566FF"/>
<stop offset="0.85" stop-color="#7622E2"/>
</linearGradient>
</defs>
</svg>
